<?xml version="1.0" encoding="UTF-8"?><svg id="Camada_1" xmlns="http://www.w3.org/2000/svg" viewBox="0 0 600 116.73"><defs><style>.cls-1{fill:#3161aa;}.cls-2{fill:#1a1e3a;}</style></defs><path class="cls-2" d="M273.45,46.2c-2.12.87-4.38,1.24-6.67,1.24s-4.54-.37-6.65-1.24c-1.92-.79-3.66-1.88-5.14-3.34-1.45-1.42-2.55-3.07-3.34-4.94-.81-1.92-1.18-3.95-1.18-6.03h0c0-2.09.37-4.12,1.18-6.04.79-1.87,1.89-3.52,3.34-4.94,1.48-1.46,3.22-2.55,5.14-3.34,2.12-.87,4.37-1.24,6.65-1.24s4.54.37,6.67,1.24c1.18.48,2.31,1.08,3.35,1.82l-4.18,4.23c-.62-.47-1.3-.86-2.03-1.16-1.2-.5-2.48-.74-3.78-.74s-2.56.24-3.76.73c-1.17.49-2.19,1.2-3.08,2.1-.9.93-1.58,2.01-2.06,3.22-.52,1.31-.74,2.69-.74,4.09h0c0,1.41.22,2.8.74,4.1.48,1.2,1.16,2.29,2.06,3.22.88.91,1.91,1.61,3.08,2.1,1.2.5,2.46.73,3.76.73s2.58-.23,3.78-.74c.73-.3,1.41-.69,2.03-1.16l4.18,4.23c-1.04.73-2.16,1.34-3.35,1.82Z"/><path class="cls-2" d="M287.95,7.5v28.79c0,2.67,2.18,4.85,4.85,4.85h1.86v5.29h-3.3c-.62,0-1.25-.06-1.86-.17-4.8-.9-8.34-5.14-8.34-10.03V7.5h6.79Z"/><path class="cls-2" d="M331.67,31.9c0,2.09-.38,4.12-1.19,6.04-.79,1.87-1.91,3.52-3.35,4.94-1.48,1.46-3.25,2.55-5.17,3.32-2.14.86-4.41,1.22-6.72,1.22s-4.49-.37-6.59-1.24c-1.92-.79-3.65-1.88-5.14-3.33-1.44-1.41-2.54-3.06-3.33-4.92-.81-1.92-1.2-3.96-1.2-6.04s.37-4.12,1.18-6.04c.79-1.87,1.89-3.52,3.34-4.94,1.48-1.46,3.22-2.55,5.14-3.34,2.12-.87,4.37-1.24,6.65-1.24s4.54.37,6.67,1.24c1.92.79,3.68,1.87,5.16,3.34,1.44,1.42,2.56,3.07,3.35,4.94.81,1.92,1.19,3.95,1.19,6.03ZM306.44,36.02c.48,1.21,1.17,2.31,2.07,3.24.89.91,1.92,1.62,3.1,2.11,1.2.5,2.46.73,3.76.73s2.58-.23,3.78-.74c1.17-.49,2.2-1.2,3.07-2.11.89-.93,1.56-2.03,2.04-3.22.52-1.32.75-2.73.75-4.14s-.23-2.79-.75-4.09c-.48-1.2-1.15-2.29-2.05-3.21-.88-.91-1.92-1.62-3.09-2.11-1.2-.5-2.48-.74-3.78-.74s-2.56.24-3.76.73c-1.17.49-2.19,1.2-3.08,2.1-.9.93-1.59,2.01-2.06,3.22-.52,1.31-.74,2.69-.74,4.09s.21,2.81.74,4.12Z"/><path class="cls-2" d="M336,17.4h6.79v15.49c0,4.54,3.71,8.25,8.24,8.25h0c4.54,0,8.25-3.71,8.25-8.25v-15.49h6.79v15.03c0,8.27-6.77,15.05-15.05,15.05s-15.05-6.77-15.05-15.05v-15.03Z"/><path class="cls-2" d="M393.38,46.21c-2.14.86-4.41,1.22-6.72,1.22s-4.49-.37-6.59-1.24c-1.92-.79-3.65-1.88-5.14-3.33-1.44-1.41-2.54-3.06-3.33-4.92-.81-1.92-1.2-3.96-1.2-6.04s.37-4.12,1.18-6.04c.79-1.87,1.89-3.52,3.34-4.94,1.48-1.46,3.22-2.55,5.14-3.34,2.12-.87,4.37-1.24,6.65-1.24s4.54.37,6.67,1.24c1.02.42,1.99.92,2.91,1.52V7.5h6.79v24.41c0,1.58-.21,3.13-.67,4.62-.15.48-.32.95-.52,1.42-.79,1.87-1.91,3.52-3.35,4.94-1.48,1.46-3.25,2.55-5.17,3.32ZM395.67,27.8c-.48-1.2-1.15-2.29-2.05-3.21-.88-.91-1.92-1.62-3.09-2.11-1.2-.5-2.48-.74-3.78-.74s-2.56.24-3.76.73c-1.17.49-2.19,1.2-3.08,2.1-.9.93-1.58,2.01-2.06,3.22-.52,1.31-.74,2.69-.74,4.09s.21,2.81.74,4.12c.48,1.21,1.17,2.31,2.07,3.24.89.91,1.92,1.62,3.1,2.11,1.2.5,2.46.73,3.76.73s2.58-.23,3.78-.74c1.17-.49,2.2-1.2,3.07-2.11.89-.93,1.56-2.03,2.04-3.22.3-.76.5-1.55.62-2.36.09-.59.13-1.19.13-1.78s-.04-1.18-.13-1.75c-.12-.8-.32-1.58-.62-2.34Z"/><path class="cls-2" d="M448.86,21.39c2.62-3.07,6.51-5.03,10.84-5.03,7.83,0,14.24,6.41,14.24,14.24v15.84h-6.79v-16.3c0-4.09-3.35-7.44-7.44-7.44s-7.44,3.35-7.44,7.44v16.3h-6.79v-16.3c0-4.09-3.35-7.44-7.44-7.44s-7.44,3.35-7.44,7.44v16.3h-6.79v-15.84c0-7.83,6.41-14.24,14.23-14.24,4.33,0,8.22,1.96,10.84,5.03Z"/><path class="cls-2" d="M485.86,8.8c0,2.11-1.71,3.81-3.81,3.81s-3.81-1.71-3.81-3.81,1.71-3.81,3.81-3.81,3.81,1.71,3.81,3.81ZM485.44,46.43h-6.79v-29.03h6.79v29.03Z"/><path class="cls-2" d="M505.26,16.35c8.27,0,15.05,6.77,15.05,15.05v15.03h-6.79v-15.49c0-4.54-3.71-8.25-8.25-8.25h0c-4.54,0-8.24,3.72-8.24,8.25v15.49h-6.79v-15.03c0-8.27,6.77-15.05,15.05-15.05Z"/><path class="cls-2" d="M547.59,46.21c-2.14.86-4.41,1.22-6.72,1.22s-4.49-.37-6.59-1.24c-1.92-.79-3.65-1.88-5.14-3.33-1.44-1.41-2.54-3.06-3.33-4.92-.81-1.92-1.2-3.96-1.2-6.04s.37-4.12,1.18-6.04c.79-1.87,1.89-3.52,3.34-4.94,1.48-1.46,3.22-2.55,5.14-3.34,2.12-.87,4.37-1.24,6.65-1.24s4.54.37,6.67,1.24c1.02.42,1.99.92,2.91,1.52V7.5h6.79v24.41c0,1.58-.21,3.13-.67,4.62-.15.48-.32.95-.52,1.42-.79,1.87-1.91,3.52-3.35,4.94-1.48,1.46-3.25,2.55-5.17,3.32ZM549.89,27.8c-.48-1.2-1.15-2.29-2.05-3.21-.88-.91-1.92-1.62-3.09-2.11-1.2-.5-2.48-.74-3.78-.74s-2.56.24-3.76.73c-1.17.49-2.19,1.2-3.08,2.1-.9.93-1.58,2.01-2.06,3.22-.52,1.31-.74,2.69-.74,4.09s.21,2.81.74,4.12c.48,1.21,1.17,2.31,2.07,3.24.89.91,1.92,1.62,3.1,2.11,1.2.5,2.46.73,3.76.73s2.58-.23,3.78-.74c1.17-.49,2.2-1.2,3.07-2.11.89-.93,1.56-2.03,2.04-3.22.3-.76.5-1.55.62-2.36.09-.59.13-1.19.13-1.78s-.04-1.18-.13-1.75c-.12-.8-.32-1.58-.62-2.34Z"/><path class="cls-2" d="M574.46,41.92c1.62-.05,3.35-.5,4.69-1.48.87-.64,1.68-1.6,1.68-2.77,0-.37-.08-.65-.3-.94-1.02-1.29-4.67-2.22-6.43-2.72-3.38-.96-7.29-1.89-9.74-4.31-1.23-1.22-2.02-2.78-2.02-4.82,0-3.92,3.44-6.64,6.97-7.77,1.92-.62,3.5-.75,5.45-.75,2.69,0,5.51.71,7.75,2.26,2.1,1.46,3.63,3.65,3.63,6.27h-6.09c0-.8-.63-1.47-1.25-1.9-2.16-1.5-5.9-1.5-8.06,0-.62.43-1.25,1.09-1.25,1.9,0,.45.11.81.41,1.16,1.16,1.33,4.9,2.24,6.6,2.7,4.6,1.23,11.47,2.91,11.47,8.93,0,2.99-1.76,5.48-4.15,7.14-5.04,3.5-12.98,3.5-18.03,0-2.39-1.66-4.15-4.16-4.15-7.14h6.09c0,1.18.86,2.14,1.78,2.77,1.41.98,3.25,1.43,4.97,1.48Z"/><path class="cls-1" d="M87.01,63.21c1.38.76,5.51.4,7.24-.09,9.53-2.74,25.43-48.33,43.97-50.93,21.36-2.99,36.27,8.53,31.71,27.5-2.02,8.4-14.6,15.71-7.32,25.16,6.5,8.42,16.45,1.85,25.58,3.44,9.59,1.67,18.63,10.62,20.06,18.92,3.64,21.23-17.98,32.52-33.9,17.81-6.58-6.08-21.76-27.9-38.05-12.98-9.58,8.77-7.48,20.43-28.2,19.19-23.74-1.43-22.16-24.58-38.96-22.9-8.99.9-11.54,10.47-16.46,15.73-18.25,19.49-49.45,5.99-43.8-17.91,1.18-5.01,32.86-56.13,38.15-62.46C66.89-.13,103.14,15.75,94.12,41.87c-1.49,4.33-14.5,17.3-7.11,21.35Z"/><path class="cls-2" d="M145.27,9.26c-10.18,1.05-19.59,8.73-20.76,17.77-1.95,15.13,9.64,22.19,15.44,34.58,3.87,8.26-6.98,13.81-13.33,7.09-11.96-15.17-20.92-34.11-33.01-48.94-20.37-24.98-62.86-2.75-44.56,26.17,6.47,10.23,15,20.11,21.63,30.34,4.06,7.94-5.05,15.83-14.08,12.14-6.33-2.58-7.88-11.24-17.09-14.66C19.27,66.22-.12,84.87,10.46,101.72c5.45,8.68,15.53,12.8,26.27,11.82,13.28-1.22,17.39-15.96,35.39-15.39,17.79.57,21.99,15.92,41.1,14.41,14.65-1.16,18.89-15.02,38.38-13.48,14.65,1.15,19.26,12.52,30.91,14.01,17.86,2.3,31.75-9.59,29.46-25.4-.43-2.97-2.47-6.14-3.97-8.82-11.61-20.66-26.35-40.85-38.51-61.35-5.97-6.58-14.76-9.24-24.22-8.26Z"/><path class="cls-2" d="M260.19,70.27c2.14-.86,4.41-1.22,6.72-1.22s4.49.37,6.59,1.24c1.92.79,3.65,1.88,5.14,3.33,1.44,1.41,2.54,3.06,3.33,4.92.81,1.92,1.2,3.95,1.2,6.04s-.37,4.12-1.18,6.04c-.79,1.87-1.89,3.52-3.34,4.94-1.48,1.46-3.22,2.55-5.14,3.34-2.12.87-4.37,1.24-6.65,1.24s-4.54-.37-6.67-1.24c-1.02-.42-1.99-.92-2.91-1.52v11.61h-6.79v-24.41c0-1.58.21-3.13.67-4.62.15-.48.32-.95.52-1.42.79-1.87,1.91-3.52,3.35-4.94,1.48-1.46,3.25-2.55,5.17-3.32ZM257.89,88.69c.48,1.2,1.15,2.29,2.05,3.21.88.91,1.92,1.62,3.09,2.11,1.2.5,2.48.74,3.78.74s2.56-.23,3.76-.73c1.17-.49,2.19-1.2,3.08-2.1.9-.93,1.58-2.02,2.06-3.22.52-1.31.74-2.69.74-4.09s-.21-2.81-.74-4.12c-.48-1.21-1.17-2.31-2.07-3.24-.89-.91-1.92-1.62-3.1-2.11-1.2-.5-2.46-.73-3.76-.73s-2.58.23-3.78.74c-1.17.49-2.2,1.2-3.07,2.11-.89.93-1.56,2.03-2.04,3.22-.3.76-.5,1.55-.62,2.36-.09.59-.13,1.19-.13,1.78s.04,1.18.13,1.75c.12.8.32,1.58.62,2.34Z"/><path class="cls-2" d="M288.66,78.57c.79-1.87,1.89-3.52,3.34-4.94,1.48-1.46,3.22-2.55,5.14-3.34,2.12-.87,4.37-1.24,6.65-1.24s4.54.37,6.67,1.24c1.02.42,1.99.92,2.91,1.52.8.53,1.56,1.13,2.26,1.82,1.44,1.42,2.56,3.07,3.35,4.94.81,1.92,1.19,3.95,1.19,6.03v14.52h-6.79v-1.72c-.92.6-1.89,1.1-2.92,1.51-2.14.86-4.41,1.22-6.72,1.22s-4.49-.37-6.59-1.24c-1.92-.79-3.65-1.88-5.14-3.33-1.44-1.41-2.54-3.06-3.33-4.92-.81-1.92-1.2-3.96-1.2-6.04s.37-4.12,1.18-6.04ZM312.74,88.74c.3-.76.5-1.55.62-2.36.09-.59.13-1.19.13-1.78s-.04-1.18-.13-1.75c-.12-.8-.32-1.58-.62-2.34-.48-1.2-1.15-2.29-2.05-3.21-.88-.91-1.92-1.62-3.09-2.11-1.2-.5-2.48-.74-3.78-.74s-2.56.24-3.76.73c-1.17.49-2.19,1.2-3.08,2.1-.9.93-1.58,2.01-2.06,3.22-.52,1.31-.74,2.69-.74,4.09s.21,2.81.74,4.12c.48,1.21,1.17,2.31,2.07,3.24.89.91,1.92,1.62,3.1,2.11,1.2.5,2.46.73,3.76.73s2.58-.23,3.78-.74c1.17-.49,2.2-1.2,3.07-2.11.89-.93,1.56-2.03,2.04-3.22Z"/><path class="cls-2" d="M324.48,87.24v-7.91c0-4.9,3.54-9.14,8.34-10.03.61-.11,1.24-.17,1.86-.17h3.3v5.29h-1.86c-2.67,0-4.85,2.18-4.85,4.85v19.87h-6.79v-11.89Z"/><path class="cls-2" d="M349.12,75.39v13.6c0,2.67,2.18,4.85,4.85,4.85h1.86v5.29h-3.3c-.62,0-1.25-.06-1.86-.17-4.8-.9-8.34-5.14-8.34-10.03v-28.73h6.79v9.9h6.71v5.29h-6.71Z"/><path class="cls-2" d="M375.21,69.06c8.27,0,15.05,6.77,15.05,15.05v15.03h-6.79v-15.49c0-4.54-3.71-8.25-8.25-8.25h0c-4.54,0-8.24,3.72-8.24,8.25v15.49h-6.79v-15.03c0-8.27,6.77-15.05,15.05-15.05Z"/><path class="cls-2" d="M404.23,70.29c2.12-.87,4.37-1.24,6.65-1.24s4.54.37,6.67,1.24c1.92.79,3.68,1.87,5.16,3.34,1.44,1.42,2.56,3.07,3.35,4.94.46,1.09.78,2.22.97,3.38.14.87.21,1.76.21,2.65s-.07,1.77-.21,2.63h-25.48c.11.5.26,1,.46,1.48.48,1.21,1.17,2.31,2.07,3.24.89.91,1.92,1.62,3.1,2.11,1.2.5,2.46.73,3.76.73s2.58-.23,3.78-.74c.75-.32,1.45-.72,2.08-1.22.33-.25.63-.53.93-.83h7.66c-.71,1.31-1.61,2.5-2.69,3.57-.55.54-1.13,1.03-1.75,1.47-1.06.75-2.21,1.36-3.42,1.85-2.14.86-4.41,1.22-6.72,1.22s-4.49-.37-6.59-1.24c-1.92-.79-3.65-1.88-5.14-3.33-1.44-1.41-2.54-3.06-3.33-4.92-.47-1.11-.79-2.25-.99-3.41-.14-.86-.21-1.74-.21-2.63s.07-1.78.21-2.65c.19-1.16.51-2.29.97-3.38.79-1.87,1.89-3.52,3.34-4.94,1.48-1.46,3.22-2.55,5.14-3.34ZM401.56,81.95h18.72c-.11-.49-.26-.98-.45-1.45-.48-1.2-1.15-2.29-2.05-3.21-.88-.91-1.92-1.62-3.09-2.11-1.2-.5-2.48-.74-3.78-.74s-2.56.24-3.76.73c-1.17.49-2.19,1.2-3.08,2.1-.9.93-1.58,2.01-2.06,3.22-.19.47-.34.96-.45,1.45Z"/><path class="cls-2" d="M431.57,87.24v-7.91c0-4.9,3.54-9.14,8.34-10.03.61-.11,1.24-.17,1.86-.17h3.3v5.29h-1.86c-2.67,0-4.85,2.18-4.85,4.85v19.87h-6.79v-11.89Z"/><path class="cls-2" d="M462.25,94.62c1.62-.05,3.35-.5,4.69-1.48.87-.64,1.68-1.6,1.68-2.77,0-.37-.08-.65-.3-.94-1.02-1.29-4.67-2.22-6.43-2.72-3.38-.96-7.29-1.89-9.74-4.31-1.23-1.22-2.02-2.78-2.02-4.82,0-3.92,3.44-6.64,6.97-7.77,1.92-.62,3.5-.75,5.45-.75,2.69,0,5.51.71,7.75,2.26,2.1,1.46,3.63,3.65,3.63,6.27h-6.09c0-.8-.63-1.47-1.25-1.9-2.16-1.5-5.9-1.5-8.06,0-.62.43-1.25,1.09-1.25,1.9,0,.45.11.81.41,1.16,1.16,1.33,4.89,2.24,6.6,2.7,4.6,1.23,11.47,2.91,11.47,8.93,0,2.99-1.76,5.48-4.15,7.14-5.04,3.5-12.98,3.5-18.03,0-2.39-1.66-4.15-4.16-4.15-7.14h6.09c0,1.18.86,2.14,1.78,2.77,1.41.98,3.25,1.43,4.97,1.48Z"/></svg>